<svg width="967" height="206" viewBox="0 0 967 206" fill="none" xmlns="http://www.w3.org/2000/svg">
<mask id="mask0_603_112" style="mask-type:luminance" maskUnits="userSpaceOnUse" x="0" y="0" width="967" height="206">
<path d="M966.823 5.85565L1.17737 0.170898L-1.03936e-05 200.167L965.646 205.852L966.823 5.85565Z" fill="white" style="fill:white;fill-opacity:1;"/>
</mask>
<g mask="url(#mask0_603_112)">
<path d="M297.645 101.205L270.633 101.046C270.633 101.046 270.429 113.148 280.919 113.21L285.452 113.237L285.387 124.315C282.301 126.497 276.449 128.151 272.446 128.127C257.119 128.037 246.205 116.23 246.291 101.605C246.377 86.9796 258.033 75.8749 272.753 75.9615C277.572 75.9899 283.765 77.6195 288.37 81.6492C289.39 82.5283 290.718 82.4411 291.502 81.3645L297.187 72.8422C297.856 71.8786 297.655 70.5305 296.693 69.7092C290.369 64.3413 280.634 61.6661 272.781 61.6199C249.96 61.4855 231.912 78.9268 231.778 101.538C231.645 124.15 249.544 141.803 272.365 141.937C281.129 141.989 291.866 138.828 297.903 134.746C298.627 134.239 299.146 133.104 299.151 132.25L299.324 102.96C299.33 101.879 298.67 101.211 297.645 101.205Z" fill="#333131" style="fill:#333131;fill:color(display-p3 0.2000 0.1922 0.1922);fill-opacity:1;"/>
<path d="M372.035 62.206C349.915 62.2465 331.538 80.7104 331.711 102.812C331.883 125.311 349.727 142.622 372.378 142.509C394.365 142.392 412.664 124.174 412.548 102.187C412.414 79.7065 394.647 62.1684 372.035 62.206ZM371.97 128.051C357.401 127.965 346.085 116.764 346.17 102.309C346.255 87.854 357.761 76.5203 372.272 76.6058C386.784 76.6912 398.156 88.0458 398.07 102.614C397.985 117.183 386.538 128.137 371.97 128.051Z" fill="#333131" style="fill:#333131;fill:color(display-p3 0.2000 0.1922 0.1922);fill-opacity:1;"/>
<path d="M483.08 62.8574C460.96 62.8979 442.583 81.3618 442.757 103.463C442.928 125.963 460.772 143.274 483.423 143.161C505.411 143.043 523.71 124.826 523.593 102.838C523.46 80.3579 505.693 62.8198 483.08 62.8574ZM483.034 128.703C468.466 128.617 457.149 117.415 457.235 102.96C457.32 88.5055 468.825 77.1718 483.337 77.2572C497.849 77.3427 509.221 88.6973 509.135 103.266C509.049 117.834 497.603 128.788 483.034 128.703Z" fill="#333131" style="fill:#333131;fill:color(display-p3 0.2000 0.1922 0.1922);fill-opacity:1;"/>
<path d="M589.712 64.6599L560.992 64.4908C559.74 64.4835 558.729 65.483 558.722 66.7346L558.29 140.128C558.282 141.418 559.244 142.392 560.629 142.4L589.045 142.567C612.226 142.703 628.829 126.335 628.962 103.875C629.094 81.4148 612.666 64.795 589.694 64.6598L589.712 64.6599ZM589.069 128.814L572.869 128.718L573.167 78.1455L589.576 78.1852C604.031 78.2128 614.531 89.4673 614.447 103.77C614.363 118.074 603.733 128.881 589.069 128.794L589.069 128.814Z" fill="#333131" style="fill:#333131;fill:color(display-p3 0.2000 0.1922 0.1922);fill-opacity:1;"/>
<path d="M766.824 65.5944L755.799 65.5295C754.718 65.5231 754.108 66.1266 754.101 67.2647L753.662 141.891C753.657 142.821 754.415 143.584 755.34 143.59L766.364 143.654C767.483 143.661 768.112 143.057 768.118 141.976L768.557 67.3498C768.563 66.3824 767.793 65.6001 766.824 65.5944Z" fill="#333131" style="fill:#333131;fill:color(display-p3 0.2000 0.1922 0.1922);fill-opacity:1;"/>
<path d="M870.041 96.5156C870.144 78.9684 856.994 66.238 838.726 66.1304L810.426 65.9638C809.095 65.956 808.102 66.8797 808.094 68.1504L807.662 141.639C807.654 143.023 808.617 143.902 809.967 143.91L819.905 143.969C821.161 143.976 822.167 142.976 822.174 141.725L822.267 125.923L838.373 126.018C840.217 126.029 841.961 125.944 843.706 125.689L851.653 142.258C852.215 143.343 853.292 144.165 854.26 144.171L865.548 144.237C867.198 144.247 867.811 143.074 867.045 141.571L856.69 121.098C864.877 115.911 869.96 107.12 870.022 96.5155L870.041 96.5156ZM837.538 113.928L822.357 113.839L822.564 78.7076L837.745 78.797C848.007 78.8574 855.645 86.2438 855.586 96.3355C855.526 106.427 847.988 113.99 837.538 113.928Z" fill="#333131" style="fill:#333131;fill:color(display-p3 0.2000 0.1922 0.1922);fill-opacity:1;"/>
<path d="M664.713 66.2779C663.464 66.2706 662.451 67.2703 662.444 68.5222L662.012 141.915C662.003 143.357 662.817 144.178 664.317 144.186L674.311 144.245C675.698 144.253 676.516 143.443 676.524 142.001L676.658 119.237L699.12 119.37C709.82 119.433 710.486 106.101 710.486 106.101L676.737 105.902L676.889 80.103L704.282 80.2643C711.869 80.309 718.074 74.1991 718.119 66.5923L664.732 66.278L664.713 66.2779Z" fill="#333131" style="fill:#333131;fill:color(display-p3 0.2000 0.1922 0.1922);fill-opacity:1;"/>
<path d="M962.962 131.021L921.063 130.775L921.155 115.124L943.154 115.254C950.498 115.297 956.47 109.394 956.514 102.053L921.233 101.846L921.359 80.3529L951.578 80.5308C959.165 80.5755 965.345 74.4655 965.39 66.8588L909.241 66.5283C907.759 66.5195 906.924 67.2924 906.915 68.8289L906.483 142.165C906.474 143.607 907.282 144.427 908.782 144.436L963.662 144.759C965.106 144.768 966.017 143.901 966.026 142.516L966.076 133.904C966.087 132.158 964.862 131.032 962.962 131.021Z" fill="#333131" style="fill:#333131;fill:color(display-p3 0.2000 0.1922 0.1922);fill-opacity:1;"/>
<path d="M54.7922 145.248C66.1253 156.754 84.7156 156.863 96.2027 145.492C107.785 134.026 107.252 115.109 95.8049 103.508L92.2783 99.9397L71.4418 120.532C76.0245 125.169 83.4982 125.213 88.1352 120.631L91.4363 117.369C94.4332 123.855 93.2482 131.815 87.8675 137.114C80.4826 144.412 68.1938 143.752 61.6994 135.234C56.3155 128.183 57.475 118.117 63.7907 111.875L125.767 50.6246C130.404 46.0421 130.448 38.568 125.865 33.9313L55.6843 103.272C44.1019 114.719 43.3456 133.647 54.7922 145.248Z" fill="#EAB651" style="fill:#EAB651;fill:color(display-p3 0.9176 0.7137 0.3176);fill-opacity:1;"/>
<path d="M37.5909 161.047C58.1231 182.529 92.4391 182.731 113.223 161.492C133.434 140.839 132.492 107.446 112.183 86.8761L108.882 83.5372L100.486 91.8348L103.881 95.2692C119.495 111.068 120.231 137.65 104.582 153.417C88.5138 169.618 62.2027 169.463 46.3262 153.075C30.8645 137.124 31.9126 110.553 47.7118 94.9386L109.364 34.0276C114 29.4451 114.044 21.9711 109.462 17.3344L39.5098 86.4483C18.9592 106.758 17.6245 140.138 37.5909 161.047Z" fill="#C4652D" style="fill:#C4652D;fill:color(display-p3 0.7686 0.3961 0.1765);fill-opacity:1;"/>
<path d="M128.553 70.2188L125.498 67.1277L117.102 75.4253L120.327 78.688C144.993 103.647 146.14 144.098 121.728 169.298C96.3247 195.537 54.0983 195.288 29.0241 168.753C4.93019 143.267 6.55306 102.832 31.4924 78.1651L92.9721 17.4051C97.6091 12.8227 97.6531 5.34862 93.0703 0.711872L23.3667 69.5996C-5.63689 98.2637 -7.63139 147.043 20.3078 176.726C50.038 208.316 100.25 208.611 130.35 177.374C158.637 148.022 157.217 99.2037 128.553 70.2188Z" fill="#B22935" style="fill:#B22935;fill:color(display-p3 0.6980 0.1608 0.2078);fill-opacity:1;"/>
<path d="M67.9524 8.91316L59.6552 0.517423C55.0185 5.0999 54.9745 12.574 59.5569 17.2107L67.9524 8.91316Z" fill="#B22935" style="fill:#B22935;fill:color(display-p3 0.6980 0.1608 0.2078);fill-opacity:1;"/>
<path d="M51.1598 25.503L42.8622 17.1073C38.2255 21.6897 38.1815 29.1638 42.764 33.8005L51.1598 25.503Z" fill="#C4652D" style="fill:#C4652D;fill:color(display-p3 0.7686 0.3961 0.1765);fill-opacity:1;"/>
<path d="M34.8605 41.6515L26.5629 33.2557C21.9262 37.8382 21.8822 45.3122 26.4646 49.949L34.8605 41.6515Z" fill="#EAB651" style="fill:#EAB651;fill:color(display-p3 0.9176 0.7137 0.3176);fill-opacity:1;"/>
</g>
</svg>
